<svg preserveAspectRatio="xMidYMid meet" data-bbox="36 29.5 128 141" viewBox="36 29.5 128 141" height="200" width="200" xmlns="http://www.w3.org/2000/svg" data-type="color" role="presentation" aria-hidden="true" aria-label=""><defs></defs>
    <g>
        <path d="M146.667 42.8h-16v-9.3a4 4 0 0 0-8 0v9.3H77.333v-9.3a4 4 0 0 0-8 0v9.3h-16C43.775 42.8 36 50.561 36 60.1v93.1c0 9.539 7.775 17.3 17.333 17.3h93.334c9.558 0 17.333-7.761 17.333-17.3V60.1c0-9.539-7.775-17.3-17.333-17.3zm-93.334 8h16v9.3a4 4 0 0 0 8 0v-9.3h45.334v9.3a4 4 0 0 0 8 0v-9.3h16c5.146 0 9.333 4.172 9.333 9.3v22.6H44V60.1c0-5.128 4.187-9.3 9.333-9.3zm93.334 111.7H53.333c-5.146 0-9.333-4.172-9.333-9.3V90.7h112v62.5c0 5.128-4.187 9.3-9.333 9.3z" fill="#FFFFFF" data-color="1"></path>
    </g>
</svg>