<svg preserveAspectRatio="xMidYMid meet" data-bbox="27.001 26.499 146.002 147" viewBox="27.001 26.499 146.002 147" height="200" width="200" xmlns="http://www.w3.org/2000/svg" data-type="color" role="presentation" aria-hidden="true" aria-label=""><defs></defs>
    <g>
        <path d="M151.569 118.788a80.618 80.618 0 0 1-17.694-4.429c-6.259-2.364-13.376-.839-18.149 3.903l-6.221 6.252A102.071 102.071 0 0 1 75.47 90.318l6.23-6.26c4.706-4.783 6.225-11.942 3.873-18.23a81.74 81.74 0 0 1-4.414-17.823c-1.196-8.502-8.498-14.864-16.985-14.864l-.168.001H44.173c-.509 0-1.024.024-1.529.07-4.572.415-8.711 2.595-11.653 6.139-2.943 3.546-4.337 8.031-3.917 12.694 2.225 21.051 9.455 41.57 20.891 59.308 10.391 16.434 24.527 30.639 40.848 41.06 17.597 11.468 37.919 18.733 58.844 21.017.515.046 1.036.069 1.553.069h.06c9.478-.039 17.159-7.823 17.121-17.337v-19.879c.191-8.752-6.159-16.267-14.822-17.495zm6.878 17.449v19.941c.02 5.119-4.111 9.3-9.206 9.321a6.703 6.703 0 0 1-.801-.03c-19.623-2.143-38.748-8.98-55.339-19.792-15.374-9.816-28.664-23.171-38.451-38.65C43.872 90.31 37.069 71.005 34.982 51.261a9.253 9.253 0 0 1 2.107-6.779 9.172 9.172 0 0 1 6.271-3.302c.274-.025.549-.038.819-.038h19.958c4.586 0 8.512 3.417 9.149 7.948a89.818 89.818 0 0 0 4.848 19.549c1.264 3.379.448 7.222-2.063 9.773l-8.394 8.435a4.02 4.02 0 0 0-.645 4.811 110.047 110.047 0 0 0 41.147 41.349 3.951 3.951 0 0 0 4.768-.648l8.377-8.419a9.247 9.247 0 0 1 9.768-2.087 88.512 88.512 0 0 0 19.405 4.862c4.649.659 8.067 4.71 7.951 9.423l-.001.099zm-42.722-75.244c-2.153-.422-3.56-2.522-3.14-4.691.418-2.168 2.501-3.587 4.659-3.162 14.866 2.915 26.346 14.453 29.247 29.394.421 2.168-.984 4.269-3.137 4.693a3.937 3.937 0 0 1-.766.075 3.981 3.981 0 0 1-3.895-3.234c-2.278-11.728-11.293-20.786-22.968-23.075zm53.748 26.218a3.983 3.983 0 0 1-4.392-3.528c-2.917-26.076-23.08-46.31-49.034-49.208-2.181-.244-3.753-2.221-3.511-4.416.242-2.196 2.207-3.781 4.386-3.535 29.67 3.312 52.721 26.449 56.055 56.263.245 2.196-1.324 4.176-3.504 4.424z" fill="#FFFFFF" data-color="1"></path>
    </g>
</svg>