<svg preserveAspectRatio="xMidYMid meet" data-bbox="29.5 36 141 128" viewBox="29.5 36 141 128" height="200" width="200" xmlns="http://www.w3.org/2000/svg" data-type="color" role="presentation" aria-hidden="true" aria-label="" fill="#000">
    <g>
        <path d="M153.2 36H46.8c-9.539 0-17.3 7.776-17.3 17.333V120c0 9.558 7.761 17.333 17.3 17.333H96V156H73.4a4 4 0 0 0 0 8h53.2a4 4 0 0 0 0-8H104v-18.667h49.2c9.539 0 17.3-7.776 17.3-17.333V53.333c0-9.557-7.761-17.333-17.3-17.333zm9.3 84c0 5.146-4.172 9.333-9.3 9.333H46.8c-5.128 0-9.3-4.187-9.3-9.333V53.333c0-5.146 4.172-9.333 9.3-9.333h106.4c5.128 0 9.3 4.187 9.3 9.333V120z" fill="#000001" data-color="1"></path>
    </g>
</svg>