<svg preserveAspectRatio="none" data-bbox="42 25 116.667 150" viewBox="42 25 116.667 150" height="200" width="200" xmlns="http://www.w3.org/2000/svg" data-type="shape" role="presentation" aria-hidden="true" aria-label="" fill="#000">
    <g>
        <path d="M109.383 25c3.334 0 6.475 1.3 8.834 3.658l36.791 36.792a12.589 12.589 0 0 1 3.659 8.833V162.5c0 6.892-5.609 12.5-12.5 12.5H54.5c-6.892 0-12.5-5.608-12.5-12.5v-125C42 30.608 47.608 25 54.5 25h54.883Zm-.716 8.333H54.5a4.174 4.174 0 0 0-4.167 4.167v125a4.174 4.174 0 0 0 4.167 4.167h91.667c2.3 0 4.166-1.875 4.166-4.167V75h-29.166c-6.892 0-12.5-5.608-12.5-12.5V33.333ZM125.333 125v8.333h-50V125h50Zm0-25v8.333h-50V100h50ZM117 39.225V62.5a4.174 4.174 0 0 0 4.167 4.167h23.275L117 39.225Z" fill-rule="evenodd"></path>
    </g>
</svg>