<svg width="24" height="24" viewBox="0 0 24 24" fill="none" xmlns="http://www.w3.org/2000/svg">
<path d="M21.8047 10.043H21V10H12V14H17.6523C16.8281 16.3281 14.6133 18 12 18C8.6875 18 6 15.3125 6 12C6 8.6875 8.6875 6 12 6C13.5312 6 14.9219 6.57812 15.9805 7.51953L18.8086 4.69141C17.0234 3.02734 14.6328 2 12 2C6.47656 2 2 6.47656 2 12C2 17.5234 6.47656 22 12 22C17.5234 22 22 17.5234 22 12C22 11.3281 21.9297 10.6758 21.8047 10.043Z" fill="#FFC107"/>
<path d="M3.15234 7.34375L6.4375 9.75391C7.32812 7.55469 9.48047 6 12 6C13.5312 6 14.9219 6.57812 15.9805 7.51953L18.8086 4.69141C17.0234 3.02734 14.6328 2 12 2C8.16016 2 4.82812 4.16797 3.15234 7.34375Z" fill="#FF3D00"/>
<path d="M11.9999 22C14.5819 22 16.9296 21.0117 18.703 19.4023L15.6092 16.7812C14.6053 17.543 13.3553 17.9961 11.9999 17.9961C9.39831 17.9961 7.19128 16.3359 6.35925 14.0234L3.09753 16.5352C4.75378 19.7773 8.11316 22 11.9999 22Z" fill="#4CAF50"/>
<path d="M21.8047 10.043H21V10H12V14H17.6523C17.2578 15.1172 16.5352 16.082 15.6094 16.7852L18.7031 19.4023C18.4844 19.6016 22 17 22 12C22 11.3281 21.9297 10.6758 21.8047 10.043Z" fill="#1976D2"/>
</svg>
