<svg preserveAspectRatio="none" data-bbox="33 33 133.333 133.333" viewBox="33 33 133.333 133.333" height="200" width="200" xmlns="http://www.w3.org/2000/svg" data-type="shape" role="presentation" aria-hidden="true" aria-label="" fill="#000">
    <g>
        <path d="M47.167 74.667h19.166V83H33V49.667h8.333v17.5C53 46.333 75.5 33 99.667 33c36.666 0 66.666 30 66.666 66.667H158c0-32.5-25.833-58.334-58.333-58.334-22.5 0-43.334 13.334-52.5 33.334Zm105 50H133v-8.334h33.333v33.334H158v-17.5c-11.667 20.833-34.167 34.166-58.333 34.166C63 166.333 33 136.333 33 99.667h8.333c0 32.5 25.834 58.333 58.334 58.333 22.5 0 42.5-13.333 52.5-33.333Z" fill-rule="evenodd" fill="#000"></path>
    </g>
</svg>