<svg preserveAspectRatio="xMidYMid meet" data-bbox="22.998 37 154.002 126.001" viewBox="22.998 37 154.002 126.001" height="200" width="200" xmlns="http://www.w3.org/2000/svg" data-type="color" role="presentation" aria-hidden="true" aria-label=""><defs></defs>
    <g>
        <path d="M175.479 123.465c-2.799 9.437-9.149 17.226-17.88 21.932a4.006 4.006 0 0 1-1.905.483 4.002 4.002 0 0 1-3.518-2.075 3.951 3.951 0 0 1 1.605-5.381c6.85-3.693 11.83-9.8 14.024-17.199 2.188-7.375 1.344-15.154-2.378-21.903-5.11-9.267-14.917-15.028-25.596-15.035h-8.355a3.995 3.995 0 0 1-3.872-2.972c-6.771-25.9-33.596-41.523-59.797-34.825C55.088 49.741 44.422 57.7 37.771 68.9c-6.618 11.147-8.461 24.177-5.189 36.691a48.53 48.53 0 0 0 10.736 19.978 3.949 3.949 0 0 1-.339 5.603 4.025 4.025 0 0 1-5.646-.336c-5.932-6.637-10.253-14.677-12.494-23.251-3.809-14.569-1.664-29.738 6.04-42.714 7.736-13.029 20.142-22.286 34.932-26.067 29.451-7.532 59.579 9.205 68.671 37.544h5.352c13.604.01 26.099 7.353 32.61 19.163 4.75 8.613 5.828 18.541 3.035 27.954zm-72.617-26.273l-.005-.005-.002-.002c-.013-.012-.028-.021-.041-.033a4.02 4.02 0 0 0-.566-.458c-.104-.069-.216-.117-.325-.175-.12-.064-.234-.136-.361-.188-.143-.059-.291-.094-.439-.135-.103-.029-.2-.069-.306-.09a4.066 4.066 0 0 0-1.57 0c-.106.021-.203.061-.305.09-.148.042-.296.077-.439.135-.126.052-.241.124-.36.188-.109.058-.222.106-.326.176a4.02 4.02 0 0 0-.566.458c-.013.012-.028.02-.041.033l-.002.002-.005.005-26.529 26.231a3.946 3.946 0 0 0-.01 5.612 4 4 0 0 0 2.833 1.167 3.998 3.998 0 0 0 2.823-1.158l19.714-19.492v49.479c0 2.192 1.791 3.969 3.999 3.969 2.209 0 3.999-1.777 3.999-3.969v-49.479l19.713 19.492a4.02 4.02 0 0 0 5.655-.01 3.946 3.946 0 0 0-.01-5.612l-26.528-26.231z" fill="#FFFFFF" data-color="1"></path>
    </g>
</svg>